<svg xmlns="http://www.w3.org/2000/svg" fill="none" viewBox="0 0 78 29"><path fill="#5A668A" d="M13.08 16.36c.19 0 .36 0 .53.02l.02-.01c.22.03.65.08 1.05.21s.77.32 1.05.52.48.41.6.67c.13.25.2.55.23 1.04.03.5.03 1.18-.09 2.46a88.82 88.82 0 0 1-.51 4.34 8.94 8.94 0 0 1-.47 2.11 2 2 0 0 1-.61.85c-.24.2-.52.3-.79.37-.26.06-.5.06-.72.06-.23 0-.44 0-.73-.06a2.29 2.29 0 0 1-.95-.4c-.12-.1-.22-.21-.31-.34-.49-.5-.7-1.42-1.02-3.65-.54-3.68-.65-5.96-.34-6.68.4-.96 1.51-1.5 3.06-1.51ZM13.1 0c3.64 0 6.93 1.4 9.43 4.02a12.87 12.87 0 0 1 3.53 6.82c.18.92.18 3.42 0 4.45a13.21 13.21 0 0 1-5.04 8.23c-.94.72-3.26 1.96-3.64 1.96-.13 0-.14-.14-.08-.71.11-.92.22-1.11.75-1.33a11.87 11.87 0 0 0 6.25-7.72c.32-1.29.29-4.13-.07-5.45a11.61 11.61 0 0 0-8.76-8.32 14.73 14.73 0 0 0-4.68 0 11.7 11.7 0 0 0-8.83 8.6 15.73 15.73 0 0 0 0 5.18 11.9 11.9 0 0 0 6.25 7.74c.53.22.64.41.74 1.33.06.56.05.72-.09.72-.09 0-.72-.27-1.4-.6l-.06-.04A12.98 12.98 0 0 1 .2 15.54c-.22-1.1-.26-3.72-.05-4.73C.7 8.11 1.77 6 3.55 4.13A12.9 12.9 0 0 1 13.1 0Zm29.38 17.32c1.89 0 3.05 1.25 3.05 3.3 0 2.07-1.15 3.32-3.05 3.32s-3.05-1.25-3.05-3.31c0-2.05 1.16-3.31 3.05-3.31Zm28.17 0c1.5 0 2.45.67 2.55 1.83h-1.35c-.1-.45-.53-.74-1.2-.74-.65 0-1.15.32-1.15.78 0 .36.3.58.94.72l1.12.26c1.21.27 1.78.8 1.78 1.73 0 1.23-1.12 2.04-2.7 2.04-1.59 0-2.59-.69-2.7-1.84h1.42c.14.47.59.75 1.3.75.73 0 1.24-.32 1.24-.8 0-.36-.27-.58-.88-.72l-1.12-.26c-1.22-.28-1.8-.84-1.8-1.8 0-1.15 1.05-1.95 2.55-1.95Zm-13.38 0c1.63 0 2.62.93 2.77 2.27h-1.37c-.14-.62-.61-1.06-1.4-1.06-.99 0-1.57.76-1.57 2.08 0 1.34.59 2.12 1.57 2.12.75 0 1.25-.36 1.4-1.02h1.37c-.16 1.33-1.16 2.23-2.76 2.23-1.91 0-3.04-1.23-3.04-3.33 0-2.06 1.12-3.3 3.03-3.3Zm6.7 0c1.63 0 2.55.8 2.55 2.15v4.34h-1.39v-.87h-.1c-.35.62-1.04.98-1.87.98-1.23 0-2.1-.75-2.1-1.91 0-1.15.86-1.82 2.4-1.91l1.64-.1v-.53c0-.63-.42-.98-1.2-.98-.66 0-1.1.24-1.24.67H61.3c.12-1.13 1.17-1.84 2.67-1.84Zm-11.23-2.33v8.82h-1.4v-1h-.1a2.14 2.14 0 0 1-1.96 1.1c-1.61 0-2.61-1.26-2.61-3.29 0-2.01 1-3.28 2.6-3.28.88 0 1.6.42 1.93 1.12h.1v-3.47h1.44Zm23.9.9v1.6H78v1.15h-1.36v3.12c0 .63.27.91.87.91.2 0 .32-.01.49-.03v1.13c-.2.04-.48.07-.75.07-1.46 0-2.04-.5-2.04-1.73v-3.47h-1v-1.15h1v-1.6h1.43Zm-41.03-.47c1.67 0 2.8 1.14 2.8 2.84 0 1.66-1.17 2.8-2.87 2.8h-1.81v2.75h-1.5v-8.4h3.38Zm29.49 5.55-1.43.1c-.8.05-1.19.34-1.19.86 0 .53.46.85 1.1.85.87 0 1.52-.56 1.52-1.3v-.5Zm-22.62-2.44c-1 0-1.58.77-1.58 2.1s.58 2.1 1.58 2.1 1.57-.77 1.57-2.1-.57-2.1-1.57-2.1Zm7.24.04c-.98 0-1.58.78-1.58 2.06 0 1.29.6 2.06 1.58 2.06 1 0 1.6-.78 1.6-2.06 0-1.27-.61-2.06-1.6-2.06ZM15.03 4.53c4.34.96 7.41 5.3 6.82 9.6a8.75 8.75 0 0 1-1.9 4.47c-.52.67-1.8 1.79-2.02 1.79-.03 0-.07-.35-.07-.8V18.5l.65-.77a7.07 7.07 0 0 0-4.18-11.6c-1-.2-1.2-.2-2.25-.02a6.85 6.85 0 0 0-3.92 1.95 7.05 7.05 0 0 0-.4 9.67l.64.77v.94c0 .53-.05.95-.1.95s-.4-.25-.8-.56l-.05-.02a9.33 9.33 0 0 1-2.91-4.65c-.29-1.09-.29-3.15.01-4.23a9.13 9.13 0 0 1 5.93-6.24 10.8 10.8 0 0 1 4.55-.17Zm20.18 12.14h-1.48v3.14h1.48c1.06 0 1.69-.55 1.69-1.55 0-1.03-.61-1.59-1.69-1.59ZM14.41 9.3a3.12 3.12 0 1 1-3.8 4.52l-.05-.08a3.04 3.04 0 0 1 1.23-4.45c.7-.36 1.93-.36 2.63 0ZM51.5 5.43c1.6 0 2.61 1.24 2.61 3.28 0 2.03-1 3.3-2.6 3.3-.9 0-1.6-.4-1.93-1.08h-.1v3.08h-1.44V5.53h1.39v1.05h.1a2.15 2.15 0 0 1 1.97-1.15Zm-7.52 0c1.6 0 2.62 1.24 2.62 3.28 0 2.03-1 3.3-2.6 3.3-.91 0-1.61-.4-1.94-1.08h-.1v3.08h-1.44V5.53h1.39v1.05h.1a2.15 2.15 0 0 1 1.97-1.15Zm17.56-.03c1.8 0 2.9 1.2 2.9 3.22v.46H60v.08c.04 1.06.65 1.72 1.6 1.72.7 0 1.2-.26 1.4-.73h1.37c-.26 1.15-1.32 1.87-2.82 1.87-1.87 0-3-1.23-3-3.28S59.7 5.4 61.55 5.4Zm-4.48-2.33v8.83h-1.44V3.07h1.44Zm-20.8.43 2.98 8.4h-1.61l-.7-2.15h-3.09l-.72 2.15h-1.51l2.97-8.4h1.68Zm7.27 3.15c-.98 0-1.59.8-1.6 2.06.01 1.28.62 2.06 1.6 2.06 1 0 1.59-.77 1.59-2.06 0-1.28-.6-2.06-1.59-2.06Zm7.52 0c-.98 0-1.6.8-1.6 2.06 0 1.28.62 2.06 1.6 2.06 1 0 1.59-.77 1.59-2.06 0-1.28-.6-2.06-1.59-2.06ZM35.44 5.1h-.1l-1.15 3.46h2.38L35.44 5.1Zm26.1 1.45c-.87 0-1.47.62-1.53 1.55h2.98c-.02-.95-.6-1.55-1.46-1.55Z"/></svg>
