<svg xmlns="http://www.w3.org/2000/svg" fill="none" viewBox="0 0 125 18"><path fill="#5A668A" d="M7.72 11.91h2.2V5.56h-2.2v6.35Z"/><ellipse cx="1.1" cy="8.14" fill="#5A668A" rx="1.1" ry="1.09"/><ellipse cx="1.1" cy="9.33" fill="#5A668A" rx="1.1" ry="1.09"/><path fill="#5A668A" d="M0 8.14h2.21v1.19H0z"/><ellipse cx="16.54" cy="9.33" fill="#5A668A" rx="1.1" ry="1.09"/><ellipse cx="16.54" cy="8.14" fill="#5A668A" rx="1.1" ry="1.09"/><path fill="#5A668A" d="M17.65 9.33h-2.21v-1.2h2.2z"/><ellipse cx="4.91" cy="11.71" fill="#5A668A" rx="1.1" ry="1.09"/><ellipse cx="4.91" cy="12.9" fill="#5A668A" rx="1.1" ry="1.09"/><path fill="#5A668A" d="M3.81 11.71h2.21v1.19H3.81z"/><ellipse cx="4.91" cy="4.57" fill="#5A668A" rx="1.1" ry="1.09"/><ellipse cx="4.91" cy="8.44" fill="#5A668A" rx="1.1" ry="1.09"/><path fill="#5A668A" d="M3.81 4.57h2.21v3.9H3.81z"/><ellipse cx="12.73" cy="5.76" fill="#5A668A" rx="1.1" ry="1.09"/><ellipse cx="12.73" cy="4.57" fill="#5A668A" rx="1.1" ry="1.09"/><path fill="#5A668A" d="M13.84 5.75h-2.21V4.56h2.2z"/><ellipse cx="8.82" cy="2.28" fill="#5A668A" rx="1.1" ry="1.09"/><ellipse cx="8.82" cy="1.09" fill="#5A668A" rx="1.1" ry="1.09"/><path fill="#5A668A" d="M9.93 2.29H7.72v-1.2h2.2z"/><ellipse cx="8.82" cy="16.38" fill="#5A668A" rx="1.1" ry="1.09"/><ellipse cx="8.82" cy="15.19" fill="#5A668A" rx="1.1" ry="1.09"/><path fill="#5A668A" d="M9.93 16.37H7.72v-1.19h2.2z"/><ellipse cx="12.73" cy="12.9" fill="#5A668A" rx="1.1" ry="1.09"/><ellipse cx="12.73" cy="9.03" fill="#5A668A" rx="1.1" ry="1.09"/><path fill="#5A668A" d="M13.84 12.9h-2.21V9.05h2.2z"/><ellipse cx="8.82" cy="5.56" fill="#5A668A" rx="1.1" ry="1.09"/><ellipse cx="8.82" cy="11.91" fill="#5A668A" rx="1.1" ry="1.09"/><path fill="#5A668A" fill-rule="evenodd" d="M69.6 12.8h1.35V8.81h2.23c.89 0 1.66-.28 2.3-.83.66-.56.98-1.26.98-2.1 0-.84-.32-1.54-.97-2.1a3.44 3.44 0 0 0-2.31-.83H69.6v9.85Zm3.6-5.2h-2.25V4.16h2.26c.56 0 1.02.18 1.36.54.34.35.51.75.51 1.18 0 .43-.17.83-.5 1.18-.35.36-.8.54-1.37.54Zm4.38-.73a3.61 3.61 0 0 1 2.66-1.03c1.07 0 1.95.34 2.65 1.02.7.69 1.04 1.54 1.04 2.57 0 1.03-.35 1.88-1.04 2.57a3.62 3.62 0 0 1-2.66 1.02A3.62 3.62 0 0 1 77.58 12a3.45 3.45 0 0 1-1.04-2.57c0-1.03.35-1.88 1.04-2.56Zm2.66 5c-.64 0-1.2-.22-1.66-.66a2.37 2.37 0 0 1-.7-1.78A2.34 2.34 0 0 1 80.25 7a2.34 2.34 0 0 1 2.35 2.44 2.34 2.34 0 0 1-2.35 2.43ZM88 13.02a3.51 3.51 0 0 1-3.42-3.6A3.51 3.51 0 0 1 88 5.85c.54 0 1.03.1 1.47.33.43.22.76.5.97.83h.06l-.06-.94V2.95h1.35v9.85H90.5v-.93h-.06c-.21.33-.54.6-.97.82-.44.22-.93.33-1.47.33Zm1.83-1.81c-.44.44-.98.66-1.62.66-.62 0-1.16-.23-1.6-.67a2.38 2.38 0 0 1-.68-1.77c0-.73.22-1.32.67-1.77.45-.44.99-.66 1.61-.66.64 0 1.18.22 1.63.66.44.44.66 1.03.66 1.77s-.22 1.34-.67 1.78Zm6.64 1.81A3.62 3.62 0 0 1 93.82 12a3.45 3.45 0 0 1-1.04-2.57c0-1.03.35-1.88 1.04-2.57a3.62 3.62 0 0 1 2.65-1.02c.8 0 1.47.18 2 .55.53.37.91.83 1.16 1.39l-1.24.48c-.37-.84-1.04-1.26-2-1.26-.6 0-1.13.22-1.58.68a2.38 2.38 0 0 0-.68 1.75c0 .7.22 1.29.68 1.75.45.46.98.69 1.58.69 1 0 1.7-.43 2.08-1.27l1.2.48a3.28 3.28 0 0 1-1.18 1.39c-.54.37-1.22.55-2.02.55Zm4.49-.62c.51.42 1.15.62 1.91.62a2.7 2.7 0 0 0 2.36-1.15h.06v.93h1.29V8.73c0-.92-.3-1.63-.91-2.13-.6-.5-1.37-.76-2.29-.76-.8 0-1.44.17-1.93.52-.5.34-.82.71-.98 1.12l1.23.5c.11-.31.33-.55.65-.72.32-.18.67-.26 1.06-.26.53 0 .98.14 1.34.44.36.3.54.7.54 1.2v.19a4.07 4.07 0 0 0-1.95-.42c-.89 0-1.64.21-2.24.63-.61.42-.91 1-.91 1.73a2 2 0 0 0 .77 1.63Zm2.13-.53c.56 0 1.06-.2 1.52-.59.45-.39.68-.85.68-1.38-.38-.3-.95-.44-1.72-.44-.65 0-1.14.13-1.48.4-.33.26-.5.58-.5.93 0 .33.16.6.46.79.3.19.65.29 1.04.29Zm5.45.6c.52.37 1.19.55 1.99.55.83 0 1.5-.2 2.03-.6.53-.4.8-.91.8-1.52 0-.45-.16-.85-.49-1.2a2.74 2.74 0 0 0-1.5-.76l-1.41-.32c-.64-.14-.96-.4-.96-.79 0-.26.14-.47.41-.63.28-.15.61-.23 1.02-.23.83 0 1.37.3 1.64.9l1.17-.46c-.21-.5-.57-.9-1.07-1.16a3.5 3.5 0 0 0-1.7-.41c-.77 0-1.44.18-2 .56-.56.37-.85.85-.85 1.45 0 .52.21.94.62 1.24.41.31.85.52 1.3.63l1.46.33c.65.16.98.45.98.9 0 .28-.14.5-.4.68-.27.18-.62.26-1.04.26-.92 0-1.57-.42-1.95-1.26l-1.2.47c.24.55.63 1 1.15 1.37Zm8.85.44c-.75 0-1.32-.19-1.72-.56-.4-.38-.6-.91-.6-1.6V7.22h-1.25V6.06h1.26V4h1.34v2.06h1.77v1.16h-1.77v3.44c0 .73.33 1.1.97 1.1.25 0 .45-.04.62-.11l.47 1.08c-.3.12-.66.18-1.09.18Zm2.74-.44c.52.37 1.19.55 1.99.55.83 0 1.5-.2 2.04-.6.52-.4.79-.91.79-1.52 0-.45-.16-.85-.49-1.2a2.74 2.74 0 0 0-1.5-.76l-1.41-.32c-.64-.14-.96-.4-.96-.79 0-.26.14-.47.41-.63.28-.15.61-.23 1.02-.23.83 0 1.37.3 1.64.9l1.17-.46c-.22-.5-.57-.9-1.07-1.16a3.5 3.5 0 0 0-1.7-.41c-.77 0-1.44.18-2 .56-.56.37-.84.85-.84 1.45 0 .52.2.94.61 1.24.41.31.85.52 1.3.63l1.46.33c.65.16.98.45.98.9 0 .28-.13.5-.4.68-.27.18-.62.26-1.04.26-.92 0-1.57-.42-1.95-1.26l-1.2.47c.24.55.63 1 1.15 1.37ZM28.06 2.33a5.43 5.43 0 0 0-5.47 5.34c0 2.93 2.5 5.32 5.47 5.32 1.6 0 2.81-.52 3.77-1.5a4.74 4.74 0 0 0 1.27-3.4c0-.34-.03-.65-.08-.91h-4.96v1.45h3.52c-.1.81-.38 1.41-.8 1.83a3.62 3.62 0 0 1-2.72 1.07 3.84 3.84 0 0 1-3.86-3.87c0-2.15 1.7-3.87 3.86-3.87 1.17 0 2.02.45 2.65 1.04l1.04-1.02a5.17 5.17 0 0 0-3.7-1.48Zm12.47 7.3c0-2-1.56-3.44-3.48-3.44a3.4 3.4 0 0 0-3.48 3.44 3.4 3.4 0 0 0 3.48 3.43 3.4 3.4 0 0 0 3.48-3.43Zm-3.48 2.07c1.04 0 1.96-.85 1.96-2.08 0-1.24-.92-2.09-1.96-2.09-1.06 0-1.96.85-1.96 2.09 0 1.23.91 2.08 1.96 2.08Zm11.07-2.07c0-2-1.56-3.44-3.48-3.44a3.4 3.4 0 0 0-3.48 3.44 3.4 3.4 0 0 0 3.48 3.43 3.4 3.4 0 0 0 3.48-3.43Zm-3.48 2.07c1.05 0 1.96-.85 1.96-2.08 0-1.24-.9-2.09-1.96-2.09s-1.96.85-1.96 2.09c0 1.23.91 2.08 1.96 2.08Zm10.77-5.4h-1.45v.56h-.05c-.34-.4-1-.77-1.83-.77a3.43 3.43 0 0 0-3.33 3.45 3.42 3.42 0 0 0 3.33 3.42c.83 0 1.49-.37 1.83-.78h.05v.5c0 1.3-.71 2-1.85 2a1.9 1.9 0 0 1-1.74-1.21l-1.33.55a3.3 3.3 0 0 0 3.08 2.03c1.79 0 3.3-1.04 3.3-3.58V6.31Zm-3.2 5.3c1.04 0 1.86-.86 1.85-2.06 0-1.21-.81-2.1-1.85-2.1s-1.93.89-1.93 2.1c0 1.2.89 2.07 1.93 2.07Zm4.24-8.86v10.09h1.52V2.74h-1.52Zm5.7 8.96a2 2 0 0 0 1.7-.95l1.19.79a3.48 3.48 0 0 1-2.9 1.52 3.38 3.38 0 0 1-3.43-3.43c0-2.04 1.49-3.44 3.27-3.44 1.8 0 2.68 1.42 2.97 2.19l.15.38-4.64 1.9c.36.68.9 1.04 1.68 1.04Zm-1.93-2.18a1.9 1.9 0 0 1 1.81-2c.6 0 1.12.29 1.28.73l-3.1 1.27Z" clip-rule="evenodd"/></svg>
