<svg xmlns="http://www.w3.org/2000/svg" fill="none"><style>.icon{display:none}:target+.icon{display:inline}</style><g fill="#5A668A"><view id="spotify" viewBox="0 0 96 29"/><path class="icon" clip-rule="evenodd" fill-rule="evenodd" d="M14.425.048C6.482.048.043 6.52.043 14.503c0 7.984 6.44 14.456 14.382 14.456 7.944 0 14.382-6.472 14.382-14.456C28.807 6.52 22.369.05 14.425.05V.048Zm6.595 20.849a.893.893 0 0 1-1.233.298c-3.376-2.073-7.627-2.542-12.633-1.393a.897.897 0 0 1-1.073-.678.9.9 0 0 1 .674-1.079c5.478-1.258 10.177-.716 13.968 1.612.423.261.557.815.297 1.24Zm.218-3.565a1.118 1.118 0 0 0 1.543-.371 1.13 1.13 0 0 0-.37-1.55c-4.439-2.742-10.932-3.513-16.155-1.92a1.13 1.13 0 0 0-.748 1.405c.18.595.807.931 1.4.751 4.572-1.395 10.465-.703 14.33 1.685Zm1.694-4.47C18.297 10.095 10.649 9.84 6.224 11.19a1.344 1.344 0 0 1-1.678-.9 1.354 1.354 0 0 1 .897-1.687c5.08-1.55 13.525-1.25 18.862 1.934.64.38.85 1.21.47 1.852a1.34 1.34 0 0 1-1.842.473h-.001Zm13.314-1.36c0 .877.442 1.295 2.925 1.89l.005.003c3.024.74 4.26 1.887 4.254 3.96 0 2.456-1.867 4.042-4.755 4.042-2.044 0-3.936-.728-5.475-2.109a.165.165 0 0 1-.016-.228l1.36-1.626a.16.16 0 0 1 .112-.057.168.168 0 0 1 .119.04c1.322 1.15 2.505 1.641 3.955 1.641 1.305 0 2.116-.567 2.116-1.48 0-.824-.402-1.285-2.777-1.835-2.793-.679-4.409-1.557-4.409-4.039 0-2.314 1.874-3.93 4.555-3.93 1.823 0 3.383.542 4.769 1.66.067.054.08.151.03.222l-1.212 1.718a.16.16 0 0 1-.108.066.16.16 0 0 1-.122-.03c-1.164-.872-2.274-1.296-3.394-1.296-1.155 0-1.932.558-1.932 1.388Zm13.72-.571c-1.252 0-2.279.496-3.127 1.511V11.3a.163.163 0 0 0-.161-.164h-2.224a.163.163 0 0 0-.162.164v12.705c0 .09.072.164.162.164h2.224c.089 0 .161-.074.161-.164v-4.01c.849.955 1.875 1.422 3.127 1.422 2.327 0 4.684-1.8 4.684-5.242.003-3.442-2.353-5.243-4.682-5.243h-.002Zm-.515 8.219c1.539 0 2.612-1.224 2.612-2.976 0-1.724-1.099-2.976-2.612-2.976-1.52 0-2.667 1.28-2.667 2.976 0 1.697 1.147 2.976 2.667 2.976Zm11.235-8.22c-2.997 0-5.344 2.32-5.344 5.282 0 2.93 2.332 5.223 5.308 5.223 3.007 0 5.362-2.311 5.362-5.26 0-2.94-2.34-5.244-5.326-5.244Zm-2.796 5.243c0 1.706 1.202 2.994 2.796 2.994 1.61 0 2.777-1.243 2.777-2.956 0-1.708-1.209-2.995-2.813-2.995-1.599 0-2.76 1.243-2.76 2.957Zm14.52-5.038h-2.447V8.621a.163.163 0 0 0-.161-.164h-2.224a.164.164 0 0 0-.163.164v2.514h-1.069a.163.163 0 0 0-.16.164v1.92c0 .09.071.165.16.165h1.069v4.97c0 2.008.994 3.026 2.957 3.026.797 0 1.458-.166 2.081-.521a.16.16 0 0 0 .083-.142v-1.83a.163.163 0 0 0-.236-.145 2.795 2.795 0 0 1-1.305.316c-.712 0-1.032-.326-1.032-1.054v-4.62h2.448c.089 0 .16-.073.16-.163V11.3a.158.158 0 0 0-.159-.164h-.002Zm8.525-.299v.309h3.8c.066 0 .126.043.15.106l2.597 6.811 2.372-6.807a.163.163 0 0 1 .154-.11h2.315c.053 0 .103.027.132.072a.16.16 0 0 1 .018.152l-3.858 10.018c-.798 2.068-1.707 2.838-3.348 2.838-.878 0-1.587-.183-2.374-.611a.163.163 0 0 1-.07-.213l.754-1.662a.162.162 0 0 1 .096-.088.176.176 0 0 1 .129.012c.42.233.834.35 1.226.35.484 0 .84-.16 1.2-.964l-3.18-7.665h-2.076v7.665a.162.162 0 0 1-.164.164h-2.222a.164.164 0 0 1-.163-.164v-7.665h-1.068a.164.164 0 0 1-.163-.164v-1.93c0-.091.073-.164.163-.164h1.068v-.473c0-2.198 1.087-3.36 3.14-3.36.844 0 1.407.134 1.847.266.07.021.115.085.115.157v1.883a.163.163 0 0 1-.213.156c-.417-.14-.79-.232-1.254-.232-.776 0-1.123.405-1.123 1.313Zm-4.942.3h-2.224a.164.164 0 0 0-.163.163v9.75c0 .091.074.164.163.164h2.224c.09 0 .163-.073.163-.164v-9.75a.163.163 0 0 0-.163-.163Zm-2.695-2.838c0-.886.715-1.602 1.596-1.602.879 0 1.593.716 1.593 1.602 0 .886-.712 1.603-1.593 1.603a1.6 1.6 0 0 1-1.596-1.603Zm21.074 5.972c-.88 0-1.565-.71-1.565-1.573 0-.862.694-1.58 1.573-1.58.88 0 1.565.71 1.565 1.571 0 .863-.694 1.582-1.573 1.582Zm-1.4-1.573c0-.784.607-1.424 1.409-1.424.796 0 1.4.631 1.4 1.415 0 .785-.607 1.425-1.409 1.425-.797 0-1.4-.632-1.4-1.416Zm1.755.153.444.623h-.375l-.398-.572h-.342v.572h-.313v-1.651h.732c.383 0 .634.196.634.527.001.27-.155.435-.38.501h-.002Zm-.671-.745h.407c.203 0 .325.091.325.26 0 .162-.122.262-.325.262h-.407v-.522Z"/><view id="apple" viewBox="0 0 78 29"/><path class="icon" d="M13.08 16.36c.19 0 .36 0 .53.02l.02-.01c.22.03.65.08 1.05.21s.77.32 1.05.52.48.41.6.67c.13.25.2.55.23 1.04.03.5.03 1.18-.09 2.46a88.82 88.82 0 0 1-.51 4.34 8.94 8.94 0 0 1-.47 2.11 2 2 0 0 1-.61.85c-.24.2-.52.3-.79.37-.26.06-.5.06-.72.06-.23 0-.44 0-.73-.06a2.29 2.29 0 0 1-.95-.4c-.12-.1-.22-.21-.31-.34-.49-.5-.7-1.42-1.02-3.65-.54-3.68-.65-5.96-.34-6.68.4-.96 1.51-1.5 3.06-1.51ZM13.1 0c3.64 0 6.93 1.4 9.43 4.02a12.87 12.87 0 0 1 3.53 6.82c.18.92.18 3.42 0 4.45a13.21 13.21 0 0 1-5.04 8.23c-.94.72-3.26 1.96-3.64 1.96-.13 0-.14-.14-.08-.71.11-.92.22-1.11.75-1.33a11.87 11.87 0 0 0 6.25-7.72c.32-1.29.29-4.13-.07-5.45a11.61 11.61 0 0 0-8.76-8.32 14.73 14.73 0 0 0-4.68 0 11.7 11.7 0 0 0-8.83 8.6 15.73 15.73 0 0 0 0 5.18 11.9 11.9 0 0 0 6.25 7.74c.53.22.64.41.74 1.33.06.56.05.72-.09.72-.09 0-.72-.27-1.4-.6l-.06-.04A12.98 12.98 0 0 1 .2 15.54c-.22-1.1-.26-3.72-.05-4.73C.7 8.11 1.77 6 3.55 4.13A12.9 12.9 0 0 1 13.1 0Zm29.38 17.32c1.89 0 3.05 1.25 3.05 3.3 0 2.07-1.15 3.32-3.05 3.32s-3.05-1.25-3.05-3.31c0-2.05 1.16-3.31 3.05-3.31Zm28.17 0c1.5 0 2.45.67 2.55 1.83h-1.35c-.1-.45-.53-.74-1.2-.74-.65 0-1.15.32-1.15.78 0 .36.3.58.94.72l1.12.26c1.21.27 1.78.8 1.78 1.73 0 1.23-1.12 2.04-2.7 2.04-1.59 0-2.59-.69-2.7-1.84h1.42c.14.47.59.75 1.3.75.73 0 1.24-.32 1.24-.8 0-.36-.27-.58-.88-.72l-1.12-.26c-1.22-.28-1.8-.84-1.8-1.8 0-1.15 1.05-1.95 2.55-1.95Zm-13.38 0c1.63 0 2.62.93 2.77 2.27h-1.37c-.14-.62-.61-1.06-1.4-1.06-.99 0-1.57.76-1.57 2.08 0 1.34.59 2.12 1.57 2.12.75 0 1.25-.36 1.4-1.02h1.37c-.16 1.33-1.16 2.23-2.76 2.23-1.91 0-3.04-1.23-3.04-3.33 0-2.06 1.12-3.3 3.03-3.3Zm6.7 0c1.63 0 2.55.8 2.55 2.15v4.34h-1.39v-.87h-.1c-.35.62-1.04.98-1.87.98-1.23 0-2.1-.75-2.1-1.91 0-1.15.86-1.82 2.4-1.91l1.64-.1v-.53c0-.63-.42-.98-1.2-.98-.66 0-1.1.24-1.24.67H61.3c.12-1.13 1.17-1.84 2.67-1.84Zm-11.23-2.33v8.82h-1.4v-1h-.1a2.14 2.14 0 0 1-1.96 1.1c-1.61 0-2.61-1.26-2.61-3.29 0-2.01 1-3.28 2.6-3.28.88 0 1.6.42 1.93 1.12h.1v-3.47h1.44Zm23.9.9v1.6H78v1.15h-1.36v3.12c0 .63.27.91.87.91.2 0 .32-.01.49-.03v1.13c-.2.04-.48.07-.75.07-1.46 0-2.04-.5-2.04-1.73v-3.47h-1v-1.15h1v-1.6h1.43Zm-41.03-.47c1.67 0 2.8 1.14 2.8 2.84 0 1.66-1.17 2.8-2.87 2.8h-1.81v2.75h-1.5v-8.4h3.38Zm29.49 5.55-1.43.1c-.8.05-1.19.34-1.19.86 0 .53.46.85 1.1.85.87 0 1.52-.56 1.52-1.3v-.5Zm-22.62-2.44c-1 0-1.58.77-1.58 2.1s.58 2.1 1.58 2.1 1.57-.77 1.57-2.1-.57-2.1-1.57-2.1Zm7.24.04c-.98 0-1.58.78-1.58 2.06 0 1.29.6 2.06 1.58 2.06 1 0 1.6-.78 1.6-2.06 0-1.27-.61-2.06-1.6-2.06ZM15.03 4.53c4.34.96 7.41 5.3 6.82 9.6a8.75 8.75 0 0 1-1.9 4.47c-.52.67-1.8 1.79-2.02 1.79-.03 0-.07-.35-.07-.8V18.5l.65-.77a7.07 7.07 0 0 0-4.18-11.6c-1-.2-1.2-.2-2.25-.02a6.85 6.85 0 0 0-3.92 1.95 7.05 7.05 0 0 0-.4 9.67l.64.77v.94c0 .53-.05.95-.1.95s-.4-.25-.8-.56l-.05-.02a9.33 9.33 0 0 1-2.91-4.65c-.29-1.09-.29-3.15.01-4.23a9.13 9.13 0 0 1 5.93-6.24 10.8 10.8 0 0 1 4.55-.17Zm20.18 12.14h-1.48v3.14h1.48c1.06 0 1.69-.55 1.69-1.55 0-1.03-.61-1.59-1.69-1.59ZM14.41 9.3a3.12 3.12 0 1 1-3.8 4.52l-.05-.08a3.04 3.04 0 0 1 1.23-4.45c.7-.36 1.93-.36 2.63 0ZM51.5 5.43c1.6 0 2.61 1.24 2.61 3.28 0 2.03-1 3.3-2.6 3.3-.9 0-1.6-.4-1.93-1.08h-.1v3.08h-1.44V5.53h1.39v1.05h.1a2.15 2.15 0 0 1 1.97-1.15Zm-7.52 0c1.6 0 2.62 1.24 2.62 3.28 0 2.03-1 3.3-2.6 3.3-.91 0-1.61-.4-1.94-1.08h-.1v3.08h-1.44V5.53h1.39v1.05h.1a2.15 2.15 0 0 1 1.97-1.15Zm17.56-.03c1.8 0 2.9 1.2 2.9 3.22v.46H60v.08c.04 1.06.65 1.72 1.6 1.72.7 0 1.2-.26 1.4-.73h1.37c-.26 1.15-1.32 1.87-2.82 1.87-1.87 0-3-1.23-3-3.28S59.7 5.4 61.55 5.4Zm-4.48-2.33v8.83h-1.44V3.07h1.44Zm-20.8.43 2.98 8.4h-1.61l-.7-2.15h-3.09l-.72 2.15h-1.51l2.97-8.4h1.68Zm7.27 3.15c-.98 0-1.59.8-1.6 2.06.01 1.28.62 2.06 1.6 2.06 1 0 1.59-.77 1.59-2.06 0-1.28-.6-2.06-1.59-2.06Zm7.52 0c-.98 0-1.6.8-1.6 2.06 0 1.28.62 2.06 1.6 2.06 1 0 1.59-.77 1.59-2.06 0-1.28-.6-2.06-1.59-2.06ZM35.44 5.1h-.1l-1.15 3.46h2.38L35.44 5.1Zm26.1 1.45c-.87 0-1.47.62-1.53 1.55h2.98c-.02-.95-.6-1.55-1.46-1.55Z"/><view id="google" viewBox="0 0 125 18"/><g class="icon"><path d="M7.72 11.91h2.2V5.56h-2.2v6.35Z"/><ellipse cx="1.1" cy="8.14" rx="1.1" ry="1.09"/><ellipse cx="1.1" cy="9.33" rx="1.1" ry="1.09"/><path d="M0 8.14h2.21v1.19H0z"/><ellipse cx="16.54" cy="9.33" rx="1.1" ry="1.09"/><ellipse cx="16.54" cy="8.14" rx="1.1" ry="1.09"/><path d="M17.65 9.33h-2.21v-1.2h2.2z"/><ellipse cx="4.91" cy="11.71" rx="1.1" ry="1.09"/><ellipse cx="4.91" cy="12.9" rx="1.1" ry="1.09"/><path d="M3.81 11.71h2.21v1.19H3.81z"/><ellipse cx="4.91" cy="4.57" rx="1.1" ry="1.09"/><ellipse cx="4.91" cy="8.44" rx="1.1" ry="1.09"/><path d="M3.81 4.57h2.21v3.9H3.81z"/><ellipse cx="12.73" cy="5.76" rx="1.1" ry="1.09"/><ellipse cx="12.73" cy="4.57" rx="1.1" ry="1.09"/><path d="M13.84 5.75h-2.21V4.56h2.2z"/><ellipse cx="8.82" cy="2.28" rx="1.1" ry="1.09"/><ellipse cx="8.82" cy="1.09" rx="1.1" ry="1.09"/><path d="M9.93 2.29H7.72v-1.2h2.2z"/><ellipse cx="8.82" cy="16.38" rx="1.1" ry="1.09"/><ellipse cx="8.82" cy="15.19" rx="1.1" ry="1.09"/><path d="M9.93 16.37H7.72v-1.19h2.2z"/><ellipse cx="12.73" cy="12.9" rx="1.1" ry="1.09"/><ellipse cx="12.73" cy="9.03" rx="1.1" ry="1.09"/><path d="M13.84 12.9h-2.21V9.05h2.2z"/><ellipse cx="8.82" cy="5.56" rx="1.1" ry="1.09"/><ellipse cx="8.82" cy="11.91" rx="1.1" ry="1.09"/><path clip-rule="evenodd" fill-rule="evenodd" d="M69.6 12.8h1.35V8.81h2.23c.89 0 1.66-.28 2.3-.83.66-.56.98-1.26.98-2.1 0-.84-.32-1.54-.97-2.1a3.44 3.44 0 0 0-2.31-.83H69.6v9.85Zm3.6-5.2h-2.25V4.16h2.26c.56 0 1.02.18 1.36.54.34.35.51.75.51 1.18 0 .43-.17.83-.5 1.18-.35.36-.8.54-1.37.54Zm4.38-.73a3.61 3.61 0 0 1 2.66-1.03c1.07 0 1.95.34 2.65 1.02.7.69 1.04 1.54 1.04 2.57 0 1.03-.35 1.88-1.04 2.57a3.62 3.62 0 0 1-2.66 1.02A3.62 3.62 0 0 1 77.58 12a3.45 3.45 0 0 1-1.04-2.57c0-1.03.35-1.88 1.04-2.56Zm2.66 5c-.64 0-1.2-.22-1.66-.66a2.37 2.37 0 0 1-.7-1.78A2.34 2.34 0 0 1 80.25 7a2.34 2.34 0 0 1 2.35 2.44 2.34 2.34 0 0 1-2.35 2.43ZM88 13.02a3.51 3.51 0 0 1-3.42-3.6A3.51 3.51 0 0 1 88 5.85c.54 0 1.03.1 1.47.33.43.22.76.5.97.83h.06l-.06-.94V2.95h1.35v9.85H90.5v-.93h-.06c-.21.33-.54.6-.97.82-.44.22-.93.33-1.47.33Zm1.83-1.81c-.44.44-.98.66-1.62.66-.62 0-1.16-.23-1.6-.67a2.38 2.38 0 0 1-.68-1.77c0-.73.22-1.32.67-1.77.45-.44.99-.66 1.61-.66.64 0 1.18.22 1.63.66.44.44.66 1.03.66 1.77s-.22 1.34-.67 1.78Zm6.64 1.81A3.62 3.62 0 0 1 93.82 12a3.45 3.45 0 0 1-1.04-2.57c0-1.03.35-1.88 1.04-2.57a3.62 3.62 0 0 1 2.65-1.02c.8 0 1.47.18 2 .55.53.37.91.83 1.16 1.39l-1.24.48c-.37-.84-1.04-1.26-2-1.26-.6 0-1.13.22-1.58.68a2.38 2.38 0 0 0-.68 1.75c0 .7.22 1.29.68 1.75.45.46.98.69 1.58.69 1 0 1.7-.43 2.08-1.27l1.2.48a3.28 3.28 0 0 1-1.18 1.39c-.54.37-1.22.55-2.02.55Zm4.49-.62c.51.42 1.15.62 1.91.62a2.7 2.7 0 0 0 2.36-1.15h.06v.93h1.29V8.73c0-.92-.3-1.63-.91-2.13-.6-.5-1.37-.76-2.29-.76-.8 0-1.44.17-1.93.52-.5.34-.82.71-.98 1.12l1.23.5c.11-.31.33-.55.65-.72.32-.18.67-.26 1.06-.26.53 0 .98.14 1.34.44.36.3.54.7.54 1.2v.19a4.07 4.07 0 0 0-1.95-.42c-.89 0-1.64.21-2.24.63-.61.42-.91 1-.91 1.73a2 2 0 0 0 .77 1.63Zm2.13-.53c.56 0 1.06-.2 1.52-.59.45-.39.68-.85.68-1.38-.38-.3-.95-.44-1.72-.44-.65 0-1.14.13-1.48.4-.33.26-.5.58-.5.93 0 .33.16.6.46.79.3.19.65.29 1.04.29Zm5.45.6c.52.37 1.19.55 1.99.55.83 0 1.5-.2 2.03-.6.53-.4.8-.91.8-1.52 0-.45-.16-.85-.49-1.2a2.74 2.74 0 0 0-1.5-.76l-1.41-.32c-.64-.14-.96-.4-.96-.79 0-.26.14-.47.41-.63.28-.15.61-.23 1.02-.23.83 0 1.37.3 1.64.9l1.17-.46c-.21-.5-.57-.9-1.07-1.16a3.5 3.5 0 0 0-1.7-.41c-.77 0-1.44.18-2 .56-.56.37-.85.85-.85 1.45 0 .52.21.94.62 1.24.41.31.85.52 1.3.63l1.46.33c.65.16.98.45.98.9 0 .28-.14.5-.4.68-.27.18-.62.26-1.04.26-.92 0-1.57-.42-1.95-1.26l-1.2.47c.24.55.63 1 1.15 1.37Zm8.85.44c-.75 0-1.32-.19-1.72-.56-.4-.38-.6-.91-.6-1.6V7.22h-1.25V6.06h1.26V4h1.34v2.06h1.77v1.16h-1.77v3.44c0 .73.33 1.1.97 1.1.25 0 .45-.04.62-.11l.47 1.08c-.3.12-.66.18-1.09.18Zm2.74-.44c.52.37 1.19.55 1.99.55.83 0 1.5-.2 2.04-.6.52-.4.79-.91.79-1.52 0-.45-.16-.85-.49-1.2a2.74 2.74 0 0 0-1.5-.76l-1.41-.32c-.64-.14-.96-.4-.96-.79 0-.26.14-.47.41-.63.28-.15.61-.23 1.02-.23.83 0 1.37.3 1.64.9l1.17-.46c-.22-.5-.57-.9-1.07-1.16a3.5 3.5 0 0 0-1.7-.41c-.77 0-1.44.18-2 .56-.56.37-.84.85-.84 1.45 0 .52.2.94.61 1.24.41.31.85.52 1.3.63l1.46.33c.65.16.98.45.98.9 0 .28-.13.5-.4.68-.27.18-.62.26-1.04.26-.92 0-1.57-.42-1.95-1.26l-1.2.47c.24.55.63 1 1.15 1.37ZM28.06 2.33a5.43 5.43 0 0 0-5.47 5.34c0 2.93 2.5 5.32 5.47 5.32 1.6 0 2.81-.52 3.77-1.5a4.74 4.74 0 0 0 1.27-3.4c0-.34-.03-.65-.08-.91h-4.96v1.45h3.52c-.1.81-.38 1.41-.8 1.83a3.62 3.62 0 0 1-2.72 1.07 3.84 3.84 0 0 1-3.86-3.87c0-2.15 1.7-3.87 3.86-3.87 1.17 0 2.02.45 2.65 1.04l1.04-1.02a5.17 5.17 0 0 0-3.7-1.48Zm12.47 7.3c0-2-1.56-3.44-3.48-3.44a3.4 3.4 0 0 0-3.48 3.44 3.4 3.4 0 0 0 3.48 3.43 3.4 3.4 0 0 0 3.48-3.43Zm-3.48 2.07c1.04 0 1.96-.85 1.96-2.08 0-1.24-.92-2.09-1.96-2.09-1.06 0-1.96.85-1.96 2.09 0 1.23.91 2.08 1.96 2.08Zm11.07-2.07c0-2-1.56-3.44-3.48-3.44a3.4 3.4 0 0 0-3.48 3.44 3.4 3.4 0 0 0 3.48 3.43 3.4 3.4 0 0 0 3.48-3.43Zm-3.48 2.07c1.05 0 1.96-.85 1.96-2.08 0-1.24-.9-2.09-1.96-2.09s-1.96.85-1.96 2.09c0 1.23.91 2.08 1.96 2.08Zm10.77-5.4h-1.45v.56h-.05c-.34-.4-1-.77-1.83-.77a3.43 3.43 0 0 0-3.33 3.45 3.42 3.42 0 0 0 3.33 3.42c.83 0 1.49-.37 1.83-.78h.05v.5c0 1.3-.71 2-1.85 2a1.9 1.9 0 0 1-1.74-1.21l-1.33.55a3.3 3.3 0 0 0 3.08 2.03c1.79 0 3.3-1.04 3.3-3.58V6.31Zm-3.2 5.3c1.04 0 1.86-.86 1.85-2.06 0-1.21-.81-2.1-1.85-2.1s-1.93.89-1.93 2.1c0 1.2.89 2.07 1.93 2.07Zm4.24-8.86v10.09h1.52V2.74h-1.52Zm5.7 8.96a2 2 0 0 0 1.7-.95l1.19.79a3.48 3.48 0 0 1-2.9 1.52 3.38 3.38 0 0 1-3.43-3.43c0-2.04 1.49-3.44 3.27-3.44 1.8 0 2.68 1.42 2.97 2.19l.15.38-4.64 1.9c.36.68.9 1.04 1.68 1.04Zm-1.93-2.18a1.9 1.9 0 0 1 1.81-2c.6 0 1.12.29 1.28.73l-3.1 1.27Z"/></g><view id="pocket" viewBox="0 0 129 27"/><g class="icon"><path clip-rule="evenodd" fill-rule="evenodd" d="M25.747 13.912c0 7.133-5.763 12.916-12.874 12.916C5.763 26.828 0 21.045 0 13.912S5.763.995 12.873.995c7.11 0 12.874 5.783 12.874 12.915ZM12.993 20.13c-3.358 0-6.08-2.731-6.08-6.1 0-3.368 2.722-6.098 6.08-6.098 3.357 0 6.078 2.73 6.078 6.098h-2.21a3.875 3.875 0 0 0-3.868-3.881 3.875 3.875 0 0 0-3.869 3.881 3.875 3.875 0 0 0 3.869 3.881v2.219Zm0-16.265C7.397 3.866 2.86 8.417 2.86 14.031c0 5.614 4.536 10.166 10.132 10.166v-2.541c-4.197 0-7.599-3.414-7.599-7.625 0-4.21 3.402-7.623 7.599-7.623S20.59 9.82 20.59 14.03h2.533c0-5.614-4.536-10.165-10.131-10.165ZM34.016 7.04v14.066h3.104v-4.039h.782c3.004 0 5.187-1.506 5.187-5.143 0-3.256-1.843-4.884-5.267-4.884h-3.806Zm5.989 4.983c0 1.708-.741 2.512-2.224 2.512h-.68V9.612h.721c1.442 0 2.183.663 2.183 2.41ZM43.388 15.922c0 3.556 1.882 5.385 4.247 5.385 2.363 0 4.266-1.848 4.266-5.426 0-3.556-1.903-5.405-4.247-5.405-2.364 0-4.266 1.85-4.266 5.446Zm2.764-.041c0-1.968.56-2.933 1.462-2.933.92 0 1.522.965 1.522 2.954 0 1.97-.58 2.953-1.482 2.953-.92 0-1.502-.984-1.502-2.974Z"/><path d="M72.846 10.476c-2.304 0-4.127 1.889-4.127 5.465 0 3.98 2.023 5.326 4.567 5.326a7.527 7.527 0 0 0 3.305-.764l-.521-2.05c-.82.382-1.722.624-2.484.624-1.281 0-2.062-.704-2.163-2.13h5.508v-.945c0-3.657-1.642-5.526-4.085-5.526Zm0 2.231c.88 0 1.341.924 1.402 2.49h-2.825c.06-1.526.52-2.49 1.423-2.49Z"/><path d="M96.934 17.95c0 2.252 1.142 3.297 2.764 3.297 1.082 0 1.823-.382 2.585-1.045l.36.905h2.524l-.221-1.85v-5.204c0-2.392-1.182-3.516-3.806-3.516-1.34 0-2.563.321-3.604.743l.54 2.21c.801-.341 1.703-.582 2.544-.582 1.081 0 1.482.482 1.482 1.366v.583a7.98 7.98 0 0 0-1.603-.181c-1.301 0-2.163.3-2.743.904-.54.524-.822 1.366-.822 2.37Zm5.168-1.526v2.472c-.381.22-.801.381-1.203.381-.8 0-1.26-.422-1.26-1.466 0-.523.12-.884.34-1.126.241-.221.581-.34 1.182-.34.34 0 .66.018.941.079Z"/><path d="M57.006 21.267c-2.784 0-4.427-1.95-4.427-5.345 0-3.316 1.683-5.406 4.587-5.406.922 0 1.622.18 2.303.443l-.441 2.532c-.48-.222-1.04-.403-1.622-.403-1.341 0-2.043 1.166-2.043 2.793 0 1.769.702 2.814 2.084 2.814.52 0 1.06-.161 1.641-.383l.441 2.433a6.656 6.656 0 0 1-2.523.522M63.474 16.123v4.984h-2.905V6.618h2.905v8.58l2.363-4.5h3.184l-2.824 4.982 2.905 5.427h-3.225l-2.403-4.984"/><path d="M78.491 17.99v-4.902h-1.12v-2.391h1.12V7.965h2.885v2.732h2.203v2.391h-2.203v4.482c0 .863.46 1.225 1.241 1.225.341 0 .641-.06.962-.14v2.37c-.441.14-1.062.222-1.782.222-2.203 0-3.306-.904-3.306-3.256M93.331 21.267c-3.645 0-5.93-2.33-5.93-7.174 0-4.661 2.345-7.213 5.95-7.213 1.202 0 2.204.24 2.985.542l-.481 2.854c-.62-.261-1.342-.503-2.203-.503-1.922 0-3.065 1.527-3.065 4.28 0 2.833 1.082 4.32 3.125 4.32.78 0 1.522-.2 2.163-.482l.5 2.773a7.978 7.978 0 0 1-3.044.603"/><path d="M109.772 21.287a8.061 8.061 0 0 1-3.827-.965l.581-2.35c1.103.602 2.203.964 3.205.964.742 0 1.142-.321 1.142-.764 0-.441-.24-.643-1.642-1.205-1.943-.784-2.905-1.527-2.905-3.276 0-1.93 1.322-3.175 3.646-3.175 1.181 0 2.263.282 3.244.764l-.581 2.35c-.901-.46-1.822-.763-2.663-.763-.621 0-.962.262-.962.684 0 .402.221.602 1.603 1.166 2.184.863 2.944 1.667 2.944 3.315 0 2.17-1.522 3.255-3.785 3.255M115.218 17.99v-4.902h-1.122v-2.391h1.122V7.965h2.884v2.732h2.203v2.391h-2.203v4.482c0 .863.461 1.225 1.241 1.225.341 0 .641-.06.962-.14v2.37c-.44.14-1.062.222-1.783.222-2.203 0-3.304-.904-3.304-3.256"/><path d="M125.011 21.287a8.061 8.061 0 0 1-3.827-.965l.581-2.35c1.103.602 2.203.964 3.205.964.741 0 1.142-.321 1.142-.764 0-.441-.241-.643-1.642-1.205-1.943-.784-2.905-1.527-2.905-3.276 0-1.93 1.322-3.175 3.646-3.175 1.181 0 2.263.282 3.244.764l-.581 2.35c-.901-.46-1.822-.763-2.663-.763-.621 0-.962.262-.962.684 0 .402.221.602 1.603 1.166 2.182.863 2.943 1.667 2.943 3.315 0 2.17-1.521 3.255-3.784 3.255"/></g></g></svg>
