<svg xmlns="http://www.w3.org/2000/svg" fill="none" viewBox="0 0 129 27"><path fill="#5A668A" fill-rule="evenodd" d="M25.747 13.912c0 7.133-5.763 12.916-12.874 12.916C5.763 26.828 0 21.045 0 13.912S5.763.995 12.873.995c7.11 0 12.874 5.783 12.874 12.915ZM12.993 20.13c-3.358 0-6.08-2.731-6.08-6.1 0-3.368 2.722-6.098 6.08-6.098 3.357 0 6.078 2.73 6.078 6.098h-2.21a3.875 3.875 0 0 0-3.868-3.881 3.875 3.875 0 0 0-3.869 3.881 3.875 3.875 0 0 0 3.869 3.881v2.219Zm0-16.265C7.397 3.866 2.86 8.417 2.86 14.031c0 5.614 4.536 10.166 10.132 10.166v-2.541c-4.197 0-7.599-3.414-7.599-7.625 0-4.21 3.402-7.623 7.599-7.623S20.59 9.82 20.59 14.03h2.533c0-5.614-4.536-10.165-10.131-10.165ZM34.016 7.04v14.066h3.104v-4.039h.782c3.004 0 5.187-1.506 5.187-5.143 0-3.256-1.843-4.884-5.267-4.884h-3.806Zm5.989 4.983c0 1.708-.741 2.512-2.224 2.512h-.68V9.612h.721c1.442 0 2.183.663 2.183 2.41ZM43.388 15.922c0 3.556 1.882 5.385 4.247 5.385 2.363 0 4.266-1.848 4.266-5.426 0-3.556-1.903-5.405-4.247-5.405-2.364 0-4.266 1.85-4.266 5.446Zm2.764-.041c0-1.968.56-2.933 1.462-2.933.92 0 1.522.965 1.522 2.954 0 1.97-.58 2.953-1.482 2.953-.92 0-1.502-.984-1.502-2.974Z" clip-rule="evenodd"/><path fill="#5A668A" d="M57.006 21.267c-2.784 0-4.427-1.95-4.427-5.345 0-3.316 1.683-5.406 4.587-5.406.922 0 1.622.18 2.303.443l-.441 2.532c-.48-.222-1.04-.403-1.622-.403-1.341 0-2.043 1.166-2.043 2.793 0 1.769.702 2.814 2.084 2.814.52 0 1.06-.161 1.641-.383l.441 2.433a6.656 6.656 0 0 1-2.523.522M63.474 16.123v4.984h-2.905V6.618h2.905v8.58l2.363-4.5h3.184l-2.824 4.982 2.905 5.427h-3.225l-2.403-4.984"/><path fill="#5A668A" fill-rule="evenodd" d="M72.846 10.476c-2.304 0-4.127 1.889-4.127 5.465 0 3.98 2.023 5.326 4.567 5.326a7.527 7.527 0 0 0 3.305-.764l-.521-2.05c-.82.382-1.722.624-2.484.624-1.281 0-2.062-.704-2.163-2.13h5.508v-.945c0-3.657-1.642-5.526-4.085-5.526Zm0 2.231c.88 0 1.341.924 1.402 2.49h-2.825c.06-1.526.52-2.49 1.423-2.49Z" clip-rule="evenodd"/><path fill="#5A668A" d="M78.491 17.99v-4.902h-1.12v-2.391h1.12V7.965h2.885v2.732h2.203v2.391h-2.203v4.482c0 .863.46 1.225 1.241 1.225.341 0 .641-.06.962-.14v2.37c-.441.14-1.062.222-1.782.222-2.203 0-3.306-.904-3.306-3.256M93.331 21.267c-3.645 0-5.93-2.33-5.93-7.174 0-4.661 2.345-7.213 5.95-7.213 1.202 0 2.204.24 2.985.542l-.481 2.854c-.62-.261-1.342-.503-2.203-.503-1.922 0-3.065 1.527-3.065 4.28 0 2.833 1.082 4.32 3.125 4.32.78 0 1.522-.2 2.163-.482l.5 2.773a7.978 7.978 0 0 1-3.044.603"/><path fill="#5A668A" fill-rule="evenodd" d="M96.934 17.95c0 2.252 1.142 3.297 2.764 3.297 1.082 0 1.823-.382 2.585-1.045l.36.905h2.524l-.221-1.85v-5.204c0-2.392-1.182-3.516-3.806-3.516-1.34 0-2.563.321-3.604.743l.54 2.21c.801-.341 1.703-.582 2.544-.582 1.081 0 1.482.482 1.482 1.366v.583a7.98 7.98 0 0 0-1.603-.181c-1.301 0-2.163.3-2.743.904-.54.524-.822 1.366-.822 2.37Zm5.168-1.526v2.472c-.381.22-.801.381-1.203.381-.8 0-1.26-.422-1.26-1.466 0-.523.12-.884.34-1.126.241-.221.581-.34 1.182-.34.34 0 .66.018.941.079Z" clip-rule="evenodd"/><path fill="#5A668A" d="M109.772 21.287a8.061 8.061 0 0 1-3.827-.965l.581-2.35c1.103.602 2.203.964 3.205.964.742 0 1.142-.321 1.142-.764 0-.441-.24-.643-1.642-1.205-1.943-.784-2.905-1.527-2.905-3.276 0-1.93 1.322-3.175 3.646-3.175 1.181 0 2.263.282 3.244.764l-.581 2.35c-.901-.46-1.822-.763-2.663-.763-.621 0-.962.262-.962.684 0 .402.221.602 1.603 1.166 2.184.863 2.944 1.667 2.944 3.315 0 2.17-1.522 3.255-3.785 3.255M115.218 17.99v-4.902h-1.122v-2.391h1.122V7.965h2.884v2.732h2.203v2.391h-2.203v4.482c0 .863.461 1.225 1.241 1.225.341 0 .641-.06.962-.14v2.37c-.44.14-1.062.222-1.783.222-2.203 0-3.304-.904-3.304-3.256"/><mask id="a" width="9" height="12" x="120" y="10" maskUnits="userSpaceOnUse" style="mask-type:luminance"><path fill="#fff" fill-rule="evenodd" d="M120.939 10.28h7.857v11.144h-7.857V10.28Z" clip-rule="evenodd"/></mask><g mask="url(#a)"><path fill="#5A668A" d="M125.011 21.287a8.061 8.061 0 0 1-3.827-.965l.581-2.35c1.103.602 2.203.964 3.205.964.741 0 1.142-.321 1.142-.764 0-.441-.241-.643-1.642-1.205-1.943-.784-2.905-1.527-2.905-3.276 0-1.93 1.322-3.175 3.646-3.175 1.181 0 2.263.282 3.244.764l-.581 2.35c-.901-.46-1.822-.763-2.663-.763-.621 0-.962.262-.962.684 0 .402.221.602 1.603 1.166 2.182.863 2.943 1.667 2.943 3.315 0 2.17-1.521 3.255-3.784 3.255"/></g></svg>
