<svg xmlns="http://www.w3.org/2000/svg" fill="none" viewBox="0 0 96 29"><path fill="#5A668A" fill-rule="evenodd" d="M14.425.048C6.482.048.043 6.52.043 14.503c0 7.984 6.44 14.456 14.382 14.456 7.944 0 14.382-6.472 14.382-14.456C28.807 6.52 22.369.05 14.425.05V.048Zm6.595 20.849a.893.893 0 0 1-1.233.298c-3.376-2.073-7.627-2.542-12.633-1.393a.897.897 0 0 1-1.073-.678.9.9 0 0 1 .674-1.079c5.478-1.258 10.177-.716 13.968 1.612.423.261.557.815.297 1.24Zm.218-3.565a1.118 1.118 0 0 0 1.543-.371 1.13 1.13 0 0 0-.37-1.55c-4.439-2.742-10.932-3.513-16.155-1.92a1.13 1.13 0 0 0-.748 1.405c.18.595.807.931 1.4.751 4.572-1.395 10.465-.703 14.33 1.685Zm1.694-4.47C18.297 10.095 10.649 9.84 6.224 11.19a1.344 1.344 0 0 1-1.678-.9 1.354 1.354 0 0 1 .897-1.687c5.08-1.55 13.525-1.25 18.862 1.934.64.38.85 1.21.47 1.852a1.34 1.34 0 0 1-1.842.473h-.001Zm13.314-1.36c0 .877.442 1.295 2.925 1.89l.005.003c3.024.74 4.26 1.887 4.254 3.96 0 2.456-1.867 4.042-4.755 4.042-2.044 0-3.936-.728-5.475-2.109a.165.165 0 0 1-.016-.228l1.36-1.626a.16.16 0 0 1 .112-.057.168.168 0 0 1 .119.04c1.322 1.15 2.505 1.641 3.955 1.641 1.305 0 2.116-.567 2.116-1.48 0-.824-.402-1.285-2.777-1.835-2.793-.679-4.409-1.557-4.409-4.039 0-2.314 1.874-3.93 4.555-3.93 1.823 0 3.383.542 4.769 1.66.067.054.08.151.03.222l-1.212 1.718a.16.16 0 0 1-.108.066.16.16 0 0 1-.122-.03c-1.164-.872-2.274-1.296-3.394-1.296-1.155 0-1.932.558-1.932 1.388Zm13.72-.571c-1.252 0-2.279.496-3.127 1.511V11.3a.163.163 0 0 0-.161-.164h-2.224a.163.163 0 0 0-.162.164v12.705c0 .09.072.164.162.164h2.224c.089 0 .161-.074.161-.164v-4.01c.849.955 1.875 1.422 3.127 1.422 2.327 0 4.684-1.8 4.684-5.242.003-3.442-2.353-5.243-4.682-5.243h-.002Zm-.515 8.219c1.539 0 2.612-1.224 2.612-2.976 0-1.724-1.099-2.976-2.612-2.976-1.52 0-2.667 1.28-2.667 2.976 0 1.697 1.147 2.976 2.667 2.976Zm11.235-8.22c-2.997 0-5.344 2.32-5.344 5.282 0 2.93 2.332 5.223 5.308 5.223 3.007 0 5.362-2.311 5.362-5.26 0-2.94-2.34-5.244-5.326-5.244Zm-2.796 5.243c0 1.706 1.202 2.994 2.796 2.994 1.61 0 2.777-1.243 2.777-2.956 0-1.708-1.209-2.995-2.813-2.995-1.599 0-2.76 1.243-2.76 2.957Zm14.52-5.038h-2.447V8.621a.163.163 0 0 0-.161-.164h-2.224a.164.164 0 0 0-.163.164v2.514h-1.069a.163.163 0 0 0-.16.164v1.92c0 .09.071.165.16.165h1.069v4.97c0 2.008.994 3.026 2.957 3.026.797 0 1.458-.166 2.081-.521a.16.16 0 0 0 .083-.142v-1.83a.163.163 0 0 0-.236-.145 2.795 2.795 0 0 1-1.305.316c-.712 0-1.032-.326-1.032-1.054v-4.62h2.448c.089 0 .16-.073.16-.163V11.3a.158.158 0 0 0-.159-.164h-.002Zm8.525-.299v.309h3.8c.066 0 .126.043.15.106l2.597 6.811 2.372-6.807a.163.163 0 0 1 .154-.11h2.315c.053 0 .103.027.132.072a.16.16 0 0 1 .018.152l-3.858 10.018c-.798 2.068-1.707 2.838-3.348 2.838-.878 0-1.587-.183-2.374-.611a.163.163 0 0 1-.07-.213l.754-1.662a.162.162 0 0 1 .096-.088.176.176 0 0 1 .129.012c.42.233.834.35 1.226.35.484 0 .84-.16 1.2-.964l-3.18-7.665h-2.076v7.665a.162.162 0 0 1-.164.164h-2.222a.164.164 0 0 1-.163-.164v-7.665h-1.068a.164.164 0 0 1-.163-.164v-1.93c0-.091.073-.164.163-.164h1.068v-.473c0-2.198 1.087-3.36 3.14-3.36.844 0 1.407.134 1.847.266.07.021.115.085.115.157v1.883a.163.163 0 0 1-.213.156c-.417-.14-.79-.232-1.254-.232-.776 0-1.123.405-1.123 1.313Zm-4.942.3h-2.224a.164.164 0 0 0-.163.163v9.75c0 .091.074.164.163.164h2.224c.09 0 .163-.073.163-.164v-9.75a.163.163 0 0 0-.163-.163Zm-2.695-2.838c0-.886.715-1.602 1.596-1.602.879 0 1.593.716 1.593 1.602 0 .886-.712 1.603-1.593 1.603a1.6 1.6 0 0 1-1.596-1.603Zm21.074 5.972c-.88 0-1.565-.71-1.565-1.573 0-.862.694-1.58 1.573-1.58.88 0 1.565.71 1.565 1.571 0 .863-.694 1.582-1.573 1.582Zm-1.4-1.573c0-.784.607-1.424 1.409-1.424.796 0 1.4.631 1.4 1.415 0 .785-.607 1.425-1.409 1.425-.797 0-1.4-.632-1.4-1.416Zm1.755.153.444.623h-.375l-.398-.572h-.342v.572h-.313v-1.651h.732c.383 0 .634.196.634.527.001.27-.155.435-.38.501h-.002Zm-.671-.745h.407c.203 0 .325.091.325.26 0 .162-.122.262-.325.262h-.407v-.522Z" clip-rule="evenodd"/></svg>
