<svg xmlns="http://www.w3.org/2000/svg" xmlns:xlink="http://www.w3.org/1999/xlink" width="580" height="521"><defs><ellipse id="a" cx="81.04" cy="81.03" rx="81.04" ry="81.03"/><rect id="b" width="260" height="235" x="0" y="0" rx="4" fill="#fff"/><mask id="c" width="162.08" height="162.07" x="0" y="0" fill="#fff" maskContentUnits="userSpaceOnUse" maskUnits="objectBoundingBox"><use xlink:href="#a"/></mask></defs><g fill="none" fill-rule="evenodd" transform="scale(1.07342 1.07363)"><use xlink:href="#b"/><path fill="#fafafa" stroke="#e5e9ea" d="M16.2 16.2h230.3v202.6H16.2Z"/><path fill="#e5e9ea" d="M16.2 117.5h230.3v1H16.2Zm0 19h230.3v1H16.2Zm0 18.98h230.3v1H16.2Zm0 19h230.3v1H16.2Zm0-132.95h230.3v1H16.2Zm0-19h230.3v1H16.2Zm0 38h230.3v1H16.2Zm0 18.98h230.3v1H16.2Zm0 19h230.3v1H16.2Zm0 94.96h230.3v1H16.2Zm0 19h230.3v1H16.2Z"/><g fill="#242d52"><path d="M22.29 117.5h31.06v45.65a5 5 0 0 1-5 5H27.3a5 5 0 0 1-5-5z"/><path d="M69.56 117.23h31.06v52a5 5 0 0 1-5 5H74.56a5 5 0 0 1-5-5zm92.52.27h31.06V46.2a5 5 0 0 0-5-5h-21.06a5 5 0 0 0-5 5z"/><path d="M209.35 117.5h31.07v58.48a5 5 0 0 1-5 5h-21.07a5 5 0 0 1-5-5V117.5Z"/></g><g fill="#f3603c"><path d="M22.29 117.5h31.06v32.98a5 5 0 0 1-5 5H27.3a5 5 0 0 1-5-5zm47.27-.27h31.06V82.66a5 5 0 0 0-5-5H74.56a5 5 0 0 0-5 5z"/><path d="M162.08 117.5h31.06V65.27a5 5 0 0 0-5-5h-21.06a5 5 0 0 0-5 5z"/><path d="M209.35 117.5h31.07v45.78a5 5 0 0 1-5 5h-21.07a5 5 0 0 1-5-5V117.5ZM115.48 117.5h31.07v90.22a5 5 0 0 1-5 5h-21.07a5 5 0 0 1-5-5V117.5Z"/></g><path fill="#242d52" d="M115.48 117.5h31.07v33.09a5 5 0 0 1-5 5h-21.07a5 5 0 0 1-5-5V117.5Z"/><g transform="translate(280)"><use xlink:href="#b" style="display:inline"/><g transform="translate(49.3 36.47)"><ellipse cx="81.04" cy="81.03" stroke="#fff" stroke-width="40" rx="61.04" ry="61.03" style="display:inline"/><g stroke-width="80" mask="url(#c)" style="display:inline"><use xlink:href="#a" stroke="#f3603c" stroke-dasharray="502"/><use xlink:href="#a" stroke="#242d52" stroke-dasharray="340"/></g></g></g><g transform="translate(140 250)"><use xlink:href="#b"/><g transform="translate(16.2 140.46)"><rect width="106.03" height="78.33" fill="#f3603c" rx="4"/><path fill="#fff" fill-rule="nonzero" d="M23.04 59.41v-3.9h3.9v-1.78h-3.9v-3.91h-1.78v3.9h-3.9v1.78h3.9v3.91h1.78zm12.27 2.04v-14.1h-2.16l-3.43 3v2.37l3.31-2.98v11.71h2.28zm6.43.2c.39 0 .71-.14.99-.4.27-.28.4-.6.4-.99 0-.38-.13-.7-.4-.98a1.34 1.34 0 0 0-.98-.41c-.38 0-.7.14-.99.41a1.33 1.33 0 0 0-.41.98c0 .38.14.7.42.98.27.27.6.4.97.4zm8.59-.01c1.45 0 2.62-.45 3.52-1.33a4.71 4.71 0 0 0 1.34-3.5c0-1.44-.44-2.54-1.32-3.32-.88-.77-2.2-1.16-3.97-1.16h-1.54l.3-2.92h5.88v-2.05h-7.86l-.73 6.9h3.63c2.2 0 3.31.88 3.31 2.63 0 .8-.23 1.43-.7 1.91-.46.49-1.1.73-1.91.73-.7 0-1.3-.2-1.8-.61s-.75-1.02-.75-1.84c0-.17.02-.4.07-.71l-2.29.13c-.03.29-.05.53-.05.72 0 .91.23 1.71.69 2.4a4.2 4.2 0 0 0 1.77 1.52c.72.33 1.53.5 2.41.5zm9.2-8.3a2.96 2.96 0 0 0 2.2-.9c.6-.61.9-1.35.9-2.2a3 3 0 0 0-.9-2.2 2.96 2.96 0 0 0-2.2-.9c-.84 0-1.57.3-2.18.9a2.98 2.98 0 0 0-.91 2.2c0 .86.3 1.6.9 2.2.6.6 1.34.9 2.2.9zm1.1 8.12 7.45-14.14H66.1l-7.43 14.14zm-1.1-9.68a1.5 1.5 0 0 1-1.08-.45 1.48 1.48 0 0 1-.46-1.1c0-.43.15-.79.46-1.08a1.51 1.51 0 0 1 1.09-.44c.42 0 .79.15 1.08.44.3.3.45.66.45 1.08 0 .43-.15.8-.44 1.1-.3.3-.66.45-1.1.45zm7.8 9.84c.84 0 1.57-.3 2.16-.91a3 3 0 0 0 .9-2.19 3 3 0 0 0-.9-2.19 2.94 2.94 0 0 0-2.17-.9 3 3 0 0 0-2.2.9 2.98 2.98 0 0 0-.9 2.2c0 .85.3 1.58.9 2.18a3 3 0 0 0 2.2.9zm0-1.56c-.44 0-.8-.15-1.1-.45a1.49 1.49 0 0 1-.45-1.09c0-.43.15-.8.44-1.1a1.5 1.5 0 0 1 1.1-.44c.42 0 .78.15 1.09.46.3.3.46.66.46 1.08 0 .42-.16.79-.46 1.09-.3.3-.67.45-1.09.45z"/></g><g transform="translate(137.77 140.46)"><rect width="106.03" height="78.33" fill="#fafafa" rx="4"/><path fill="#1e272e" fill-rule="nonzero" d="M22.1 61.64c.94 0 1.78-.17 2.53-.5a4.19 4.19 0 0 0 1.77-1.5c.44-.67.66-1.43.66-2.3 0-.84-.22-1.59-.65-2.22a4.12 4.12 0 0 0-1.77-1.44c.52-.31.94-.72 1.24-1.22a3.14 3.14 0 0 0 .46-1.66 3.3 3.3 0 0 0-1.2-2.63 4.51 4.51 0 0 0-3.04-1.02c-1.24 0-2.26.34-3.06 1.02-.8.67-1.21 1.55-1.21 2.63 0 .61.15 1.17.46 1.66.31.5.74.9 1.28 1.22a3.87 3.87 0 0 0-2.43 3.67c0 .86.22 1.62.66 2.28a4.15 4.15 0 0 0 1.78 1.5c.74.34 1.59.5 2.52.5zm0-8.67c-.6 0-1.11-.2-1.53-.58a1.93 1.93 0 0 1-.62-1.46c0-.57.2-1.05.62-1.43.42-.39.93-.58 1.53-.58s1.11.2 1.53.58c.41.38.62.86.62 1.43s-.2 1.05-.63 1.45a2.13 2.13 0 0 1-1.52.6zm0 6.61c-.77 0-1.4-.23-1.92-.68a2.33 2.33 0 0 1-.76-1.82c0-.75.26-1.34.76-1.8.51-.44 1.15-.66 1.92-.66.76 0 1.4.22 1.9.67.51.45.76 1.04.76 1.79s-.25 1.36-.76 1.81c-.5.46-1.14.7-1.9.7zm11.08 2.06c.94 0 1.78-.17 2.52-.5a4.19 4.19 0 0 0 1.78-1.5c.44-.67.66-1.43.66-2.3 0-.84-.22-1.59-.66-2.22a4.12 4.12 0 0 0-1.77-1.44c.53-.31.95-.72 1.25-1.22a3.14 3.14 0 0 0 .45-1.66 3.3 3.3 0 0 0-1.2-2.63 4.51 4.51 0 0 0-3.03-1.02c-1.24 0-2.26.34-3.07 1.02-.8.68-1.2 1.55-1.2 2.63 0 .61.15 1.17.46 1.66.31.5.74.9 1.28 1.22a3.87 3.87 0 0 0-2.43 3.67c0 .86.21 1.62.65 2.28a4.15 4.15 0 0 0 1.78 1.5c.75.34 1.6.51 2.53.51zm0-8.66c-.6 0-1.12-.2-1.53-.6a1.93 1.93 0 0 1-.63-1.45c0-.57.21-1.05.63-1.43.41-.39.92-.58 1.53-.58.6 0 1.1.2 1.52.58.42.38.63.86.63 1.43s-.21 1.05-.63 1.45a2.13 2.13 0 0 1-1.52.6zm0 6.6c-.77 0-1.41-.22-1.92-.68a2.33 2.33 0 0 1-.76-1.82c0-.74.25-1.34.76-1.79.5-.45 1.15-.67 1.92-.67.76 0 1.4.22 1.9.67.5.45.76 1.04.76 1.79s-.25 1.36-.76 1.81c-.5.46-1.14.7-1.9.7zm8.44 2.07c.38 0 .7-.14.98-.4.27-.28.41-.6.41-.99 0-.38-.14-.7-.41-.98a1.34 1.34 0 0 0-.98-.4c-.38 0-.7.13-.98.4a1.33 1.33 0 0 0-.42.99c0 .37.14.7.42.97.27.27.6.4.98.4zm13.3-.2V59.4h-6.5l4.14-4.29a8.48 8.48 0 0 0 1.47-1.95c.3-.6.46-1.27.46-1.99 0-1.25-.42-2.23-1.25-2.95A4.78 4.78 0 0 0 50 47.13c-1.4 0-2.52.4-3.34 1.18-.83.78-1.24 1.9-1.24 3.37v.79l2.27.22v-1.04c0-.92.2-1.59.62-2 .41-.42.98-.63 1.7-.63.69 0 1.23.19 1.63.57.4.38.6.9.6 1.58 0 .88-.46 1.8-1.4 2.77l-5.65 5.8v1.71zm9.71 0V58.7h1.94v-2.05h-1.94v-9.3h-3.47l-5.43 9.3v2.05h6.63v2.76h2.27zm-2.27-4.8h-4.42l4.42-7.84zm8.12-3.3a2.96 2.96 0 0 0 2.19-.91c.6-.61.9-1.35.9-2.2a3 3 0 0 0-.9-2.2 2.96 2.96 0 0 0-2.19-.9c-.85 0-1.58.3-2.18.9a2.98 2.98 0 0 0-.91 2.2c0 .86.3 1.6.9 2.2.6.6 1.34.91 2.2.91zm1.1 8.11 7.45-14.13h-1.98l-7.44 14.13zm-1.1-9.68a1.5 1.5 0 0 1-1.08-.45 1.48 1.48 0 0 1-.46-1.1c0-.42.15-.78.46-1.08a1.51 1.51 0 0 1 1.08-.44c.43 0 .8.15 1.1.45.29.3.44.65.44 1.08a1.5 1.5 0 0 1-1.54 1.54zm7.79 9.84c.85 0 1.57-.3 2.17-.91a3 3 0 0 0 .9-2.19 3 3 0 0 0-.9-2.19 2.94 2.94 0 0 0-2.17-.9 3 3 0 0 0-2.2.9 2.98 2.98 0 0 0-.9 2.2c0 .85.3 1.58.9 2.19a3 3 0 0 0 2.2.9zm0-1.56c-.44 0-.8-.15-1.1-.45a1.49 1.49 0 0 1-.44-1.09c0-.43.14-.8.44-1.1a1.5 1.5 0 0 1 1.1-.44c.41 0 .78.15 1.08.46.3.3.46.66.46 1.08 0 .43-.15.79-.45 1.09-.3.3-.67.45-1.1.45z"/></g><g transform="translate(16.2 16.2)"><rect width="227.58" height="108.05" fill="#fafafa" rx="4"/><path fill="#343a40" fill-rule="nonzero" d="M28.79 84.81c2 0 3.79-.36 5.38-1.07a8.6 8.6 0 0 0 5.2-8.08c-.01-1.82-.48-3.4-1.4-4.75a8.79 8.79 0 0 0-3.78-3.08 7.51 7.51 0 0 0 2.66-2.6 6.7 6.7 0 0 0 .97-3.55c0-2.28-.86-4.14-2.57-5.6a9.62 9.62 0 0 0-6.46-2.18c-2.65 0-4.83.72-6.55 2.17a7 7 0 0 0-2.57 5.61c0 1.31.33 2.5 1 3.56a7.57 7.57 0 0 0 2.71 2.58 8.55 8.55 0 0 0-3.8 3.06 8.26 8.26 0 0 0-1.39 4.77 8.6 8.6 0 0 0 5.2 8.07c1.6.73 3.4 1.1 5.4 1.1zm0-18.48c-1.3 0-2.39-.42-3.27-1.26a4.1 4.1 0 0 1-1.33-3.11 4 4 0 0 1 1.33-3.05 4.62 4.62 0 0 1 3.27-1.24 4.6 4.6 0 0 1 3.25 1.24 4 4 0 0 1 1.32 3.05 4.1 4.1 0 0 1-1.34 3.1 4.55 4.55 0 0 1-3.24 1.27zm0 14.1a5.9 5.9 0 0 1-4.1-1.46 4.95 4.95 0 0 1-1.62-3.89c0-1.59.54-2.86 1.62-3.82a5.96 5.96 0 0 1 4.1-1.43 5.9 5.9 0 0 1 4.05 1.43 4.85 4.85 0 0 1 1.62 3.82c0 1.6-.54 2.9-1.62 3.88a5.82 5.82 0 0 1-4.05 1.46zm21.73 3.98 9.73-12.87c1.77-2.4 2.66-4.82 2.66-7.28 0-1.97-.48-3.75-1.43-5.33a9.9 9.9 0 0 0-3.9-3.68 11.43 11.43 0 0 0-5.45-1.31c-1.96 0-3.76.43-5.4 1.3a10.12 10.12 0 0 0-5.37 9.15 10.1 10.1 0 0 0 1.4 5.24 9.34 9.34 0 0 0 3.56 3.47 9.66 9.66 0 0 0 4.69 1.18c.66 0 1.3-.06 1.9-.19l-8.02 10.32zm1.73-13.76c-1.8 0-3.27-.56-4.42-1.7a6.06 6.06 0 0 1-1.74-4.46 5.82 5.82 0 0 1 1.73-4.42 6.1 6.1 0 0 1 4.43-1.7c1.82 0 3.28.55 4.4 1.65a5.95 5.95 0 0 1 1.66 4.43c0 1.76-.57 3.23-1.7 4.42a5.75 5.75 0 0 1-4.36 1.78zm17.67 14.18c.81 0 1.51-.29 2.1-.86a2.83 2.83 0 0 0 .87-2.1c0-.8-.29-1.5-.87-2.1a2.86 2.86 0 0 0-2.1-.87c-.8 0-1.5.3-2.1.88a2.85 2.85 0 0 0-.88 2.1c0 .8.3 1.5.89 2.08.59.58 1.28.87 2.09.87zm14.22-.42L98.3 58.18v-3.86H77.4v4.37h15.45L78.6 84.4h5.53zm34.38 0v-5.89h4.14v-4.37h-4.14V54.32h-7.4l-11.6 19.81v4.4h14.15v5.88zm-4.85-10.26h-9.42l9.42-16.7zm17.09-7.02c1.83 0 3.38-.65 4.66-1.94a6.49 6.49 0 0 0 1.92-4.71 6.4 6.4 0 0 0-1.92-4.66 6.31 6.31 0 0 0-4.66-1.95c-1.81 0-3.37.65-4.66 1.95a6.36 6.36 0 0 0-1.95 4.66c0 1.84.65 3.41 1.94 4.7a6.35 6.35 0 0 0 4.67 1.95zm2.32 17.3L149 54.28h-4.22L128.9 84.43zm-2.32-20.66c-.9 0-1.67-.32-2.32-.96a3.16 3.16 0 0 1-.97-2.33c0-.91.32-1.68.97-2.31a3.22 3.22 0 0 1 2.32-.94c.91 0 1.69.32 2.32.95.63.63.95 1.4.95 2.3 0 .91-.31 1.7-.94 2.33-.62.64-1.4.96-2.33.96zm16.6 21c1.82 0 3.37-.65 4.64-1.94a6.41 6.41 0 0 0 1.91-4.66c0-1.83-.64-3.4-1.92-4.68a6.29 6.29 0 0 0-4.62-1.93 6.4 6.4 0 0 0-4.69 1.93 6.35 6.35 0 0 0-1.94 4.68c0 1.82.65 3.38 1.93 4.67a6.4 6.4 0 0 0 4.7 1.93zm0-3.33c-.92 0-1.7-.32-2.33-.96a3.17 3.17 0 0 1-.95-2.31c0-.93.31-1.71.95-2.35a3.18 3.18 0 0 1 2.34-.95c.89 0 1.66.33 2.3.97.66.65 1 1.42 1 2.33 0 .9-.33 1.67-.98 2.3-.65.65-1.42.97-2.32.97z"/></g></g></g></svg>
