<svg xmlns="http://www.w3.org/2000/svg" fill="none" viewBox="0 0 288 288"><style>#mob:target~.oval,.canv{fill:#2c7dfa}#mob:target~.canv,.oval{fill:#3685ff}</style><mask id="a" maskUnits="userSpaceOnUse" style="mask-type:luminance"><path fill="#fff" d="M288 0H0v288h288V0Z"/></mask><defs id="mob"></defs><path class="canv" d="M288 0H0v288h288V0Z"/><g class="oval" mask="url(#a)"><path d="M267 475a135 135 0 1 0-1-271 135 135 0 0 0 1 271ZM33 164a164 164 0 1 0 0-328 164 164 0 0 0 0 328Z"/></g><g fill="#fff"><path d="M125 64h-6v6h6v-6ZM152 64h-5v6h5v-6ZM158 64h-6v6h6v-6ZM169 64h-6v6h6v-6ZM114 70h-6v5h6v-5ZM119 70h-5v5h5v-5ZM130 70h-5v5h5v-5ZM136 70h-6v5h6v-5ZM141 70h-5v5h5v-5ZM147 70h-6v5h6v-5ZM158 70h-6v5h6v-5ZM163 70h-5v5h5v-5ZM180 70h-6v5h6v-5ZM114 75h-6v6h6v-6ZM119 75h-5v6h5v-6ZM125 75h-6v6h6v-6ZM136 75h-6v6h6v-6ZM141 75h-5v6h5v-6ZM152 75h-5v6h5v-6ZM169 75h-6v6h6v-6ZM180 75h-6v6h6v-6ZM114 81h-6v5h6v-5ZM119 81h-5v5h5v-5ZM130 81h-5v5h5v-5ZM158 81h-6v5h6v-5ZM163 81h-5v5h5v-5ZM180 81h-6v5h6v-5ZM119 86h-5v6h5v-6ZM152 86h-5v6h5v-6ZM158 86h-6v6h6v-6ZM174 86h-5v6h5v-6ZM180 86h-6v6h6v-6ZM119 92h-5v5h5v-5ZM136 92h-6v5h6v-5ZM152 92h-5v5h5v-5ZM180 92h-6v5h6v-5ZM114 97h-6v6h6v-6ZM125 97h-6v6h6v-6ZM136 97h-6v6h6v-6ZM147 97h-6v6h6v-6ZM158 97h-6v6h6v-6ZM169 97h-6v6h6v-6ZM180 97h-6v6h6v-6ZM114 103h-6v5h6v-5ZM130 103h-5v5h5v-5ZM147 103h-6v5h6v-5ZM152 103h-5v5h5v-5ZM158 103h-6v5h6v-5ZM169 103h-6v5h6v-5ZM180 103h-6v5h6v-5ZM70 108h-6v6h6v-6ZM103 108h-6v6h6v-6ZM114 108h-6v6h6v-6ZM125 108h-6v6h6v-6ZM158 108h-6v6h6v-6ZM163 108h-5v6h5v-6ZM174 108h-5v6h5v-6ZM185 108h-5v6h5v-6ZM191 108h-6v6h6v-6ZM207 108h-5v6h5v-6ZM213 108h-6v6h6v-6ZM218 108h-5v6h5v-6ZM70 114h-6v5h6v-5ZM81 114h-6v5h6v-5ZM97 114h-5v5h5v-5ZM141 114h-5v5h5v-5ZM158 114h-6v5h6v-5ZM163 114h-5v5h5v-5ZM169 114h-6v5h6v-5ZM174 114h-5v5h5v-5ZM196 114h-5v5h5v-5ZM202 114h-6v5h6v-5ZM213 114h-6v5h6v-5ZM218 114h-5v5h5v-5ZM75 119h-5v6h5v-6ZM81 119h-6v6h6v-6ZM86 119h-5v6h5v-6ZM92 119h-6v6h6v-6ZM103 119h-6v6h6v-6ZM108 119h-5v6h5v-6ZM114 119h-6v6h6v-6ZM119 119h-5v6h5v-6ZM136 119h-6v6h6v-6ZM141 119h-5v6h5v-6ZM147 119h-6v6h6v-6ZM152 119h-5v6h5v-6ZM158 119h-6v6h6v-6ZM163 119h-5v6h5v-6ZM70 125h-6v5h6v-5ZM81 125h-6v5h6v-5ZM97 125h-5v5h5v-5ZM108 125h-5v5h5v-5ZM114 125h-6v5h6v-5ZM119 125h-5v5h5v-5ZM125 125h-6v5h6v-5ZM136 125h-6v5h6v-5ZM141 125h-5v5h5v-5ZM180 125h-6v5h6v-5ZM191 125h-6v5h6v-5ZM196 125h-5v5h5v-5ZM207 125h-5v5h5v-5ZM75 130h-5v6h5v-6ZM97 130h-5v6h5v-6ZM103 130h-6v6h6v-6ZM114 130h-6v6h6v-6ZM125 130h-6v6h6v-6ZM141 130h-5v6h5v-6ZM152 130h-5v6h5v-6ZM158 130h-6v6h6v-6ZM174 130h-5v6h5v-6ZM180 130h-6v6h6v-6ZM191 130h-6v6h6v-6ZM196 130h-5v6h5v-6ZM224 130h-6v6h6v-6ZM81 136h-6v5h6v-5ZM92 136h-6v5h6v-5ZM108 136h-5v5h5v-5ZM119 136h-5v5h5v-5ZM125 136h-6v5h6v-5ZM158 136h-6v5h6v-5ZM174 136h-5v5h5v-5ZM180 136h-6v5h6v-5ZM185 136h-5v5h5v-5ZM191 136h-6v5h6v-5ZM202 136h-6v5h6v-5ZM218 136h-5v5h5v-5ZM224 136h-6v5h6v-5ZM70 141h-6v6h6v-6ZM75 141h-5v6h5v-6ZM92 141h-6v6h6v-6ZM103 141h-6v6h6v-6ZM114 141h-6v6h6v-6ZM119 141h-5v6h5v-6ZM163 141h-5v6h5v-6ZM169 141h-6v6h6v-6ZM185 141h-5v6h5v-6ZM196 141h-5v6h5v-6ZM207 141h-5v6h5v-6ZM213 141h-6v6h6v-6ZM114 147h-6v5h6v-5ZM119 147h-5v5h5v-5ZM125 147h-6v5h6v-5ZM152 147h-5v5h5v-5ZM169 147h-6v5h6v-5ZM174 147h-5v5h5v-5ZM196 147h-5v5h5v-5ZM202 147h-6v5h6v-5ZM213 147h-6v5h6v-5ZM224 147h-6v5h6v-5ZM70 152h-6v6h6v-6ZM92 152h-6v6h6v-6ZM97 152h-5v6h5v-6ZM103 152h-6v6h6v-6ZM130 152h-5v6h5v-6ZM158 152h-6v6h6v-6ZM163 152h-5v6h5v-6ZM169 152h-6v6h6v-6ZM174 152h-5v6h5v-6ZM196 152h-5v6h5v-6ZM207 152h-5v6h5v-6ZM213 152h-6v6h6v-6ZM70 158h-6v5h6v-5ZM108 158h-5v5h5v-5ZM114 158h-6v5h6v-5ZM119 158h-5v5h5v-5ZM130 158h-5v5h5v-5ZM141 158h-5v5h5v-5ZM147 158h-6v5h6v-5ZM163 158h-5v5h5v-5ZM169 158h-6v5h6v-5ZM174 158h-5v5h5v-5ZM180 158h-6v5h6v-5ZM191 158h-6v5h6v-5ZM196 158h-5v5h5v-5ZM202 158h-6v5h6v-5ZM213 158h-6v5h6v-5ZM218 158h-5v5h5v-5ZM224 158h-6v5h6v-5ZM70 163h-6v6h6v-6ZM75 163h-5v6h5v-6ZM86 163h-5v6h5v-6ZM92 163h-6v6h6v-6ZM97 163h-5v6h5v-6ZM103 163h-6v6h6v-6ZM114 163h-6v6h6v-6ZM119 163h-5v6h5v-6ZM130 163h-5v6h5v-6ZM152 163h-5v6h5v-6ZM174 163h-5v6h5v-6ZM207 163h-5v6h5v-6ZM224 163h-6v6h6v-6ZM70 169h-6v5h6v-5ZM81 169h-6v5h6v-5ZM86 169h-5v5h5v-5ZM97 169h-5v5h5v-5ZM119 169h-5v5h5v-5ZM125 169h-6v5h6v-5ZM136 169h-6v5h6v-5ZM141 169h-5v5h5v-5ZM169 169h-6v5h6v-5ZM180 169h-6v5h6v-5ZM185 169h-5v5h5v-5ZM191 169h-6v5h6v-5ZM196 169h-5v5h5v-5ZM202 169h-6v5h6v-5ZM70 174h-6v6h6v-6ZM92 174h-6v6h6v-6ZM103 174h-6v6h6v-6ZM108 174h-5v6h5v-6ZM119 174h-5v6h5v-6ZM130 174h-5v6h5v-6ZM147 174h-6v6h6v-6ZM152 174h-5v6h5v-6ZM163 174h-5v6h5v-6ZM180 174h-6v6h6v-6ZM185 174h-5v6h5v-6ZM191 174h-6v6h6v-6ZM196 174h-5v6h5v-6ZM202 174h-6v6h6v-6ZM213 174h-6v6h6v-6ZM218 174h-5v6h5v-6ZM224 174h-6v6h6v-6ZM114 180h-6v5h6v-5ZM119 180h-5v5h5v-5ZM125 180h-6v5h6v-5ZM147 180h-6v5h6v-5ZM163 180h-5v5h5v-5ZM169 180h-6v5h6v-5ZM180 180h-6v5h6v-5ZM202 180h-6v5h6v-5ZM207 180h-5v5h5v-5ZM136 185h-6v6h6v-6ZM169 185h-6v6h6v-6ZM174 185h-5v6h5v-6ZM180 185h-6v6h6v-6ZM191 185h-6v6h6v-6ZM202 185h-6v6h6v-6ZM207 185h-5v6h5v-6ZM213 185h-6v6h6v-6ZM125 191h-6v5h6v-5ZM130 191h-5v5h5v-5ZM147 191h-6v5h6v-5ZM152 191h-5v5h5v-5ZM158 191h-6v5h6v-5ZM174 191h-5v5h5v-5ZM180 191h-6v5h6v-5ZM202 191h-6v5h6v-5ZM224 191h-6v5h6v-5ZM136 196h-6v6h6v-6ZM141 196h-5v6h5v-6ZM147 196h-6v6h6v-6ZM158 196h-6v6h6v-6ZM174 196h-5v6h5v-6ZM180 196h-6v6h6v-6ZM185 196h-5v6h5v-6ZM191 196h-6v6h6v-6ZM196 196h-5v6h5v-6ZM202 196h-6v6h6v-6ZM207 196h-5v6h5v-6ZM119 202h-5v5h5v-5ZM125 202h-6v5h6v-5ZM130 202h-5v5h5v-5ZM141 202h-5v5h5v-5ZM147 202h-6v5h6v-5ZM163 202h-5v5h5v-5ZM169 202h-6v5h6v-5ZM185 202h-5v5h5v-5ZM196 202h-5v5h5v-5ZM207 202h-5v5h5v-5ZM213 202h-6v5h6v-5ZM218 202h-5v5h5v-5ZM119 207h-5v6h5v-6ZM125 207h-6v6h6v-6ZM152 207h-5v6h5v-6ZM158 207h-6v6h6v-6ZM163 207h-5v6h5v-6ZM174 207h-5v6h5v-6ZM185 207h-5v6h5v-6ZM191 207h-6v6h6v-6ZM196 207h-5v6h5v-6ZM202 207h-6v6h6v-6ZM207 207h-5v6h5v-6ZM213 207h-6v6h6v-6ZM218 207h-5v6h5v-6ZM136 213h-6v5h6v-5ZM152 213h-5v5h5v-5ZM174 213h-5v5h5v-5ZM185 213h-5v5h5v-5ZM196 213h-5v5h5v-5ZM207 213h-5v5h5v-5ZM213 213h-6v5h6v-5ZM224 213h-6v5h6v-5ZM114 218h-6v6h6v-6ZM119 218h-5v6h5v-6ZM130 218h-5v6h5v-6ZM141 218h-5v6h5v-6ZM147 218h-6v6h6v-6ZM163 218h-5v6h5v-6ZM169 218h-6v6h6v-6ZM174 218h-5v6h5v-6ZM185 218h-5v6h5v-6ZM191 218h-6v6h6v-6ZM196 218h-5v6h5v-6ZM202 218h-6v6h6v-6ZM207 218h-5v6h5v-6ZM213 218h-6v6h6v-6Z"/><path fill-rule="evenodd" d="M70 64h33v39H64V64h6Zm0 33h27V70H70v27ZM191 64h33v39h-39V64h6Zm0 33h27V70h-27v27ZM70 185h33v39H64v-39h6Zm0 33h27v-27H70v27Z" clip-rule="evenodd"/><path d="M92 75H75v17h17V75ZM213 75h-17v17h17V75ZM92 196H75v17h17v-17Z"/></g></svg>
